<svg id="Capa_1" enable-background="new 0 0 497 497" height="512" viewBox="0 0 497 497" width="512" xmlns="http://www.w3.org/2000/svg"><g><path d="m170.831 12.404c-7.87 2.588-12.152 11.065-9.564 18.935s11.064 12.153 18.935 9.563l-139.3 139.299c2.587-7.869-1.695-16.347-9.564-18.935-7.868-2.581-16.347 1.695-18.935 9.565-4.459 13.561-7.716 27.448-9.775 41.54h209.768v-209.747c-14.101 2.059-27.996 5.318-41.565 9.78z" fill="#3b7bc1"/><path d="m248.5 0c-12.138 0-24.194.885-36.104 2.624-7.864 1.467-13.246 8.875-12.094 16.866 1.182 8.199 8.785 13.89 16.987 12.706l-185.093 185.092c1.182-8.199-4.508-15.804-12.707-16.986-7.98-1.145-15.384 4.22-16.861 12.07-1.741 11.918-2.628 23.983-2.628 36.128 0 137.243 111.257 248.5 248.5 248.5s248.5-111.257 248.5-248.5-111.257-248.5-248.5-248.5z" fill="#3193e0"/><path d="m248.5 30v437c120.674 0 218.5-97.826 218.5-218.5s-97.826-218.5-218.5-218.5z" fill="#26abff"/><path d="m437 248.5c0-120.674-84.394-218.5-188.5-218.5-120.674 0-218.5 97.826-218.5 218.5s97.826 218.5 218.5 218.5c104.106 0 188.5-97.826 188.5-218.5z" fill="#30caf3"/><path d="m248.5 90v317c87.537 0 158.5-70.963 158.5-158.5s-70.963-158.5-158.5-158.5z" fill="#3ae8e6"/><path d="m377 248.5c0-87.537-57.531-158.5-128.5-158.5-87.537 0-158.5 70.963-158.5 158.5s70.963 158.5 158.5 158.5c70.969 0 128.5-70.963 128.5-158.5z" fill="#7cf0ee"/><path d="m248.5 150v68.5l78.104-30c-18.007-23.408-46.288-38.5-78.104-38.5z" fill="#bdf7f7"/><path d="m248.5 150c-31.818 0-60.106 15.091-78.114 38.5l78.114 30 54.323-30c-12.523-23.409-32.196-38.5-54.323-38.5z" fill="#fff"/><path d="m302.823 188.5-15.949 95.902 55.467-65.902c-3.501-10.961-8.877-21.081-15.738-30z" fill="#3193e0"/><path d="m170.386 188.5c-12.781 16.615-20.386 37.418-20.386 60 0 10.462 1.637 20.54 4.659 30l123.841 30 38.374-54.098c.08-1.953.126-3.92.126-5.902 0-22.582-5.289-43.385-14.177-60z" fill="#26abff"/><path d="m342.341 218.5h-28.581l-65.26 128.5c54.4 0 98.5-44.1 98.5-98.5 0-10.462-1.637-20.54-4.659-30z" fill="#bdf7f7"/><path d="m317 248.5c0-10.462-1.138-20.54-3.24-30h-65.26c-8.284 0-15 6.716-15 15s6.716 15 15 15 15 6.716 15 15-6.716 15-15 15h-93.841c12.69 39.729 49.903 68.5 93.841 68.5 37.831 0 68.5-44.1 68.5-98.5z" fill="#fff"/></g></svg>