<svg width="160" height="100" viewBox="0 0 160 100" fill="none" xmlns="http://www.w3.org/2000/svg">
<path d="M51.7631 41.4398C51.7631 37.8036 54.2319 35.5428 57.453 35.5428C58.8281 35.5428 60.2759 35.859 61.2115 36.5894C61.3167 36.687 61.3856 36.8175 61.4069 36.9594C61.4281 37.1013 61.4005 37.2463 61.3285 37.3704L60.4719 38.8028C60.3966 38.9414 60.2708 39.0456 60.1207 39.0939C59.9706 39.1422 59.8077 39.1308 59.6658 39.0621C59.1147 38.8256 58.5261 38.6885 57.9272 38.6573C56.4541 38.6573 55.2656 39.7261 55.2656 41.5568C55.2537 41.9097 55.3144 42.2612 55.444 42.5896C55.5735 42.918 55.7691 43.2163 56.0187 43.4659C56.2683 43.7155 56.5664 43.9112 56.8947 44.0408C57.223 44.1704 57.5745 44.2311 57.9272 44.2192C58.5711 44.2044 59.2042 44.0501 59.7827 43.7671C60.1589 43.5805 60.4971 43.6026 60.6868 43.9568L61.5371 45.3607C61.5914 45.4848 61.6045 45.623 61.5743 45.7551C61.5442 45.8872 61.4724 46.0061 61.3696 46.0943C60.2004 46.8544 58.8348 47.2566 57.4404 47.2515C54.2319 47.2515 51.7505 45.0888 51.7505 41.4557" fill="#050000"/>
<path d="M122.871 46.3789V36.3997C122.864 36.3187 122.875 36.237 122.902 36.1604C122.929 36.0837 122.973 36.0138 123.03 35.9554C123.086 35.8969 123.155 35.8513 123.23 35.8216C123.306 35.7919 123.387 35.7788 123.469 35.7832H125.843C125.924 35.7788 126.005 35.7919 126.081 35.8216C126.157 35.8513 126.225 35.8969 126.282 35.9554C126.338 36.0138 126.382 36.0837 126.409 36.1604C126.436 36.237 126.447 36.3187 126.44 36.3997V46.3789C126.447 46.46 126.436 46.5416 126.409 46.6183C126.382 46.6949 126.338 46.7648 126.282 46.8233C126.225 46.8817 126.157 46.9273 126.081 46.957C126.005 46.9867 125.924 46.9999 125.843 46.9955H123.469C123.387 46.9999 123.306 46.9867 123.23 46.957C123.155 46.9273 123.086 46.8817 123.03 46.8233C122.973 46.7648 122.929 46.6949 122.902 46.6183C122.875 46.5416 122.864 46.46 122.871 46.3789" fill="#050000"/>
<path d="M87.0785 31.4986H84.771C84.6914 31.494 84.6118 31.5063 84.5374 31.5347C84.463 31.5632 84.3955 31.6071 84.3393 31.6636C84.2831 31.7201 84.2396 31.7879 84.2115 31.8625C84.1835 31.937 84.1716 32.0167 84.1767 32.0963V36.3333C83.2329 35.8215 82.1777 35.5501 81.1041 35.5428C78.6037 35.5428 75.9358 37.3483 75.9358 41.4177C75.9358 44.5512 77.9241 47.2357 80.9018 47.2357C82.0651 47.2357 83.5887 46.7646 84.4138 45.4808V46.3788C84.4039 46.461 84.4122 46.5443 84.438 46.6229C84.4639 46.7016 84.5066 46.7735 84.5633 46.8338C84.62 46.8941 84.6891 46.9413 84.766 46.9719C84.8428 47.0026 84.9254 47.016 85.008 47.0112H87.0785C87.1607 47.015 87.2428 47.0008 87.3189 46.9698C87.3951 46.9387 87.4637 46.8915 87.5199 46.8314C87.5761 46.7713 87.6185 46.6997 87.6444 46.6216C87.6703 46.5434 87.6789 46.4606 87.6697 46.3788V32.0963C87.6747 32.017 87.6629 31.9376 87.635 31.8632C87.6072 31.7889 87.5639 31.7213 87.5081 31.6648C87.4523 31.6084 87.3851 31.5644 87.3111 31.5358C87.2371 31.5071 87.1578 31.4945 87.0785 31.4986V31.4986ZM81.8217 44.2192C80.4909 44.2192 79.217 43.1031 79.217 41.2976C79.2048 40.9476 79.2632 40.5987 79.3887 40.2717C79.5142 39.9448 79.7042 39.6465 79.9474 39.3946C80.1906 39.1427 80.4821 38.9423 80.8043 38.8055C81.1266 38.6687 81.4732 38.5981 81.8233 38.5981C82.1734 38.5981 82.5199 38.6687 82.8422 38.8055C83.1645 38.9423 83.4559 39.1427 83.6991 39.3946C83.9424 39.6465 84.1324 39.9448 84.2579 40.2717C84.3834 40.5987 84.4418 40.9476 84.4296 41.2976C84.4296 43.1031 83.1651 44.2192 81.8217 44.2192Z" fill="#050000"/>
<path d="M31.624 35.5523C30.2047 35.5523 29.1995 36.0266 27.9572 36.8835C26.7483 36.0066 25.2904 35.5401 23.7972 35.5523C22.3847 35.5612 21.0057 35.9832 19.8301 36.7665C19.239 37.1238 18.9987 37.5506 18.9987 38.3474V46.401C18.9894 46.483 18.9981 46.5661 19.0242 46.6445C19.0502 46.7228 19.093 46.7946 19.1495 46.8548C19.2061 46.9149 19.275 46.9621 19.3516 46.9929C19.4282 47.0238 19.5106 47.0376 19.593 47.0334H21.9006C21.9825 47.0372 22.0644 47.0231 22.1403 46.992C22.2162 46.9609 22.2844 46.9136 22.3401 46.8533C22.3959 46.7931 22.4377 46.7214 22.4628 46.6432C22.4879 46.5651 22.4956 46.4824 22.4854 46.401V39.2549C22.4854 38.964 22.8268 38.6605 23.9711 38.6605C25.0616 38.6605 26.1522 39.5363 26.1522 41.7244V46.3788C26.1439 46.464 26.1545 46.5499 26.1833 46.6304C26.2121 46.7109 26.2584 46.784 26.3189 46.8445C26.3793 46.905 26.4524 46.9513 26.5329 46.9801C26.6134 47.009 26.6993 47.0196 26.7844 47.0112H29.092C29.1742 47.0143 29.256 46.9998 29.3321 46.9686C29.4082 46.9374 29.4767 46.8902 29.533 46.8303C29.5893 46.7704 29.6321 46.6991 29.6586 46.6212C29.685 46.5433 29.6945 46.4607 29.6863 46.3788V46.3788V39.2549C29.6863 38.964 30.0213 38.6605 31.1562 38.6605C32.291 38.6605 33.3499 39.5363 33.3499 41.7244V46.3788C33.341 46.4641 33.3512 46.5502 33.3798 46.631C33.4084 46.7118 33.4547 46.7852 33.5153 46.8458C33.5759 46.9064 33.6493 46.9527 33.73 46.9814C33.8108 47.01 33.8969 47.0202 33.9822 47.0112H36.2613C36.3464 47.0196 36.4323 47.009 36.5128 46.9801C36.5933 46.9513 36.6664 46.905 36.7268 46.8445C36.7873 46.784 36.8336 46.7109 36.8624 46.6304C36.8912 46.5499 36.9018 46.464 36.8935 46.3788V41.5347C36.8935 37.7404 35.0411 35.5428 31.6619 35.5428" fill="#050000"/>
<path d="M115.512 35.5523C114.093 35.5523 113.094 36.0266 111.858 36.8835C110.646 36.0085 109.187 35.5423 107.692 35.5523C106.278 35.5607 104.898 35.9828 103.722 36.7665C103.13 37.1238 102.887 37.5506 102.887 38.3474V46.401C102.878 46.4832 102.887 46.5663 102.914 46.6447C102.94 46.7231 102.983 46.7947 103.04 46.8548C103.097 46.9149 103.166 46.962 103.243 46.9928C103.319 47.0237 103.402 47.0375 103.484 47.0334H105.789C105.871 47.0376 105.953 47.0239 106.03 46.993C106.106 46.9621 106.175 46.9149 106.231 46.8547C106.288 46.7944 106.33 46.7226 106.356 46.6443C106.382 46.5659 106.39 46.4829 106.38 46.401V39.2549C106.38 38.964 106.715 38.6605 107.859 38.6605C109.004 38.6605 110.044 39.5363 110.044 41.7244V46.3788C110.035 46.464 110.046 46.5499 110.075 46.6304C110.104 46.7109 110.15 46.784 110.21 46.8445C110.271 46.905 110.344 46.9513 110.424 46.9801C110.505 47.009 110.591 47.0196 110.676 47.0112H112.977C113.06 47.016 113.142 47.0026 113.219 46.9719C113.296 46.9413 113.365 46.8941 113.422 46.8338C113.479 46.7735 113.521 46.7015 113.547 46.6229C113.573 46.5443 113.581 46.461 113.571 46.3788V39.2549C113.571 38.964 113.903 38.6605 115.048 38.6605C116.192 38.6605 117.232 39.5363 117.232 41.7244V46.3788C117.222 46.4642 117.232 46.5506 117.261 46.6317C117.289 46.7128 117.335 46.7864 117.396 46.8471C117.457 46.9079 117.53 46.9542 117.611 46.9826C117.692 47.011 117.779 47.0208 117.864 47.0112H120.146C120.23 47.0177 120.315 47.0056 120.394 46.9759C120.472 46.9462 120.544 46.8995 120.602 46.8392C120.661 46.7789 120.706 46.7064 120.734 46.6268C120.761 46.5473 120.771 46.4626 120.763 46.3788V41.5347C120.763 37.7404 118.914 35.5428 115.531 35.5428" fill="#050000"/>
<path d="M44.2967 26C43.9475 25.9988 43.6015 26.0664 43.2784 26.1992C42.9554 26.3319 42.6617 26.5271 42.4141 26.7735C42.1666 27.0199 41.9701 27.3128 41.8359 27.6353C41.7017 27.9578 41.6324 28.3036 41.632 28.6529C41.6139 29.0248 41.673 29.3963 41.8053 29.7442C41.9377 30.0922 42.1406 30.409 42.4012 30.6747C42.6619 30.9405 42.9746 31.1495 43.3199 31.2885C43.6651 31.4276 44.0353 31.4938 44.4074 31.4829C45.3936 31.4829 45.8235 30.9485 46.6644 31.1825C47.8403 27.698 46.0163 26 44.2967 26Z" fill="#ED6D02"/>
<path d="M68.4441 26C68.095 25.9988 67.7491 26.0665 67.4262 26.1992C67.1034 26.332 66.8099 26.5272 66.5626 26.7737C66.3153 27.0201 66.1191 27.313 65.9853 27.6355C65.8514 27.958 65.7825 28.3037 65.7825 28.6529C65.7644 29.0248 65.8235 29.3963 65.9559 29.7442C66.0882 30.0922 66.2911 30.409 66.5518 30.6747C66.8124 30.9405 67.1252 31.1495 67.4704 31.2885C67.8156 31.4276 68.1859 31.4938 68.5579 31.4829C69.541 31.4829 69.9709 30.9485 70.8117 31.1825C71.9908 27.698 70.1605 26 68.4441 26Z" fill="#FABE00"/>
<path d="M95.1329 26C94.7837 25.9988 94.4376 26.0664 94.1146 26.1992C93.7915 26.3319 93.4978 26.5271 93.2503 26.7735C93.0028 27.0199 92.8063 27.3128 92.6721 27.6353C92.5378 27.9578 92.4685 28.3036 92.4681 28.6529C92.4501 29.0248 92.5091 29.3963 92.6415 29.7442C92.7739 30.0922 92.9768 30.409 93.2374 30.6747C93.4981 30.9405 93.8108 31.1495 94.1561 31.2885C94.5013 31.4276 94.8715 31.4938 95.2435 31.4829C96.2298 31.4829 96.6597 30.9485 97.5005 31.1825C98.6638 27.698 96.8399 26 95.1329 26Z" fill="#8C7A64"/>
<path d="M44.5812 35.5522C41.0661 35.5522 38.5151 37.7403 38.5151 41.5442C38.5151 45.2532 41.044 47.2357 43.5286 47.2357C45.049 47.2357 46.2755 46.5243 46.8287 45.5978V46.3788C46.8215 46.4637 46.8329 46.5491 46.8621 46.6291C46.8914 46.7091 46.9377 46.7818 46.9979 46.842C47.0581 46.9022 47.1307 46.9485 47.2107 46.9778C47.2907 47.007 47.3761 47.0184 47.4609 47.0112H49.4303C49.5126 47.0155 49.5949 47.0017 49.6713 46.9708C49.7478 46.94 49.8166 46.8928 49.8729 46.8325C49.9292 46.7723 49.9716 46.7005 49.9973 46.6221C50.023 46.5437 50.0312 46.4607 50.0214 46.3788V40.8106C50.0088 37.8668 48.0331 35.5522 44.5812 35.5522ZM46.6644 43.8398C45.8235 43.6089 45.3999 44.1401 44.4073 44.1401C44.0356 44.151 43.6656 44.0849 43.3206 43.9461C42.9756 43.8072 42.663 43.5985 42.4024 43.3331C42.1419 43.0677 41.9389 42.7513 41.8063 42.4037C41.6737 42.0561 41.6144 41.6849 41.6319 41.3133C41.6319 40.9637 41.7009 40.6176 41.835 40.2947C41.969 39.9719 42.1654 39.6786 42.413 39.4319C42.6606 39.1851 42.9544 38.9897 43.2777 38.8567C43.6009 38.7238 43.9472 38.656 44.2967 38.6573C46.0163 38.6478 47.8403 40.3458 46.6644 43.8303V43.8398Z" fill="#050000"/>
<path d="M68.7286 35.5522C65.2166 35.5522 62.6625 37.7403 62.6625 41.5442C62.6625 45.2532 65.2071 47.2357 67.6759 47.2357C69.1964 47.2357 70.4229 46.5243 70.9761 45.5978V46.3788C70.9689 46.4637 70.9803 46.5491 71.0095 46.6291C71.0387 46.7091 71.085 46.7818 71.1453 46.842C71.2055 46.9022 71.2781 46.9485 71.3581 46.9778C71.438 47.007 71.5234 47.0184 71.6083 47.0112H73.5776C73.66 47.0155 73.7422 47.0017 73.8187 46.9708C73.8951 46.94 73.9639 46.8928 74.0202 46.8325C74.0765 46.7723 74.119 46.7005 74.1446 46.6221C74.1703 46.5437 74.1785 46.4607 74.1687 46.3788V40.8106C74.1561 37.8668 72.1678 35.5522 68.7286 35.5522ZM70.8117 43.8398C69.9709 43.6089 69.5473 44.1401 68.5579 44.1401C68.186 44.1515 67.8158 44.0857 67.4706 43.947C67.1254 43.8083 66.8126 43.5996 66.5519 43.3341C66.2912 43.0686 66.0883 42.752 65.9558 42.4042C65.8234 42.0565 65.7644 41.6851 65.7824 41.3133C65.7824 40.964 65.8513 40.6181 65.9852 40.2955C66.119 39.9728 66.3152 39.6797 66.5624 39.433C66.8096 39.1863 67.1031 38.9908 67.426 38.8577C67.7489 38.7246 68.0948 38.6565 68.4441 38.6573C70.1605 38.6478 71.9908 40.3458 70.8117 43.8303V43.8398Z" fill="#050000"/>
<path d="M95.4047 35.5522C91.8896 35.5522 89.3386 37.7403 89.3386 41.5442C89.3386 45.2532 91.8675 47.2357 94.3521 47.2357C95.8726 47.2357 97.099 46.5243 97.6522 45.5978V46.3788C97.645 46.4637 97.6564 46.5491 97.6856 46.6291C97.7149 46.7091 97.7612 46.7818 97.8214 46.842C97.8816 46.9022 97.9542 46.9485 98.0342 46.9778C98.1142 47.007 98.1996 47.0184 98.2844 47.0112H100.254C100.336 47.0155 100.418 47.0017 100.495 46.9708C100.571 46.94 100.64 46.8928 100.696 46.8325C100.753 46.7723 100.795 46.7005 100.821 46.6221C100.846 46.5437 100.855 46.4607 100.845 46.3788V40.8106C100.823 37.8668 98.8408 35.5522 95.4047 35.5522ZM97.4879 43.8398C96.647 43.6089 96.2234 44.1401 95.2308 44.1401C94.8591 44.151 94.4891 44.0849 94.1441 43.9461C93.7991 43.8072 93.4865 43.5985 93.2259 43.3331C92.9653 43.0677 92.7624 42.7513 92.6298 42.4037C92.4972 42.0561 92.4379 41.6849 92.4554 41.3133C92.4554 40.9637 92.5244 40.6176 92.6585 40.2947C92.7925 39.9719 92.9889 39.6786 93.2365 39.4319C93.4841 39.1851 93.7779 38.9897 94.1012 38.8567C94.4244 38.7238 94.7707 38.656 95.1202 38.6573C96.8398 38.6478 98.6638 40.3458 97.4879 43.8303V43.8398Z" fill="#050000"/>
<path d="M134.229 35.5522C130.714 35.5522 128.163 37.7403 128.163 41.5442C128.163 45.2532 130.692 47.2357 133.176 47.2357C134.697 47.2357 135.923 46.5243 136.476 45.5978V46.3788C136.469 46.4637 136.481 46.5491 136.51 46.6291C136.539 46.7091 136.585 46.7818 136.646 46.842C136.706 46.9022 136.778 46.9485 136.858 46.9778C136.938 47.007 137.024 47.0184 137.109 47.0112H139.072C139.154 47.0155 139.236 47.0017 139.313 46.9708C139.389 46.94 139.458 46.8928 139.514 46.8325C139.571 46.7723 139.613 46.7005 139.639 46.6221C139.664 46.5437 139.673 46.4607 139.663 46.3788V40.8106C139.656 37.8668 137.665 35.5522 134.229 35.5522ZM136.312 43.8398C135.471 43.6089 135.048 44.1401 134.055 44.1401C133.683 44.151 133.313 44.0849 132.968 43.9461C132.623 43.8072 132.311 43.5985 132.05 43.3331C131.79 43.0677 131.587 42.7513 131.454 42.4037C131.321 42.0561 131.262 41.6849 131.28 41.3133C131.28 40.9637 131.349 40.6176 131.483 40.2947C131.617 39.9719 131.813 39.6786 132.061 39.4319C132.308 39.1851 132.602 38.9897 132.925 38.8567C133.249 38.7238 133.595 38.656 133.944 38.6573C135.664 38.6478 137.491 40.3458 136.312 43.8303V43.8398Z" fill="#050000"/>
<path d="M133.944 26C133.595 25.9988 133.249 26.0664 132.926 26.1992C132.603 26.3319 132.309 26.5271 132.062 26.7735C131.814 27.0199 131.618 27.3128 131.484 27.6353C131.349 27.9578 131.28 28.3036 131.28 28.6529C131.262 29.0248 131.321 29.3963 131.453 29.7442C131.585 30.0922 131.788 30.409 132.049 30.6747C132.31 30.9405 132.622 31.1495 132.968 31.2885C133.313 31.4276 133.683 31.4938 134.055 31.4829C135.041 31.4829 135.471 30.9485 136.312 31.1825C137.491 27.698 135.664 26 133.944 26Z" fill="#0C8BCD"/>
<mask id="mask0" style="mask-type:alpha" maskUnits="userSpaceOnUse" x="15" y="48" width="129" height="30">
<path d="M36.8161 55.7472H55.6667L57.3334 63.3334H65.3334L66.3334 52.6667H143.333V77H21.0403L16.3334 67.3333L21.0403 49.0862L36.8161 55.7472Z" fill="#C4C4C4" stroke="white"/>
</mask>
<g mask="url(#mask0)">
<path fill-rule="evenodd" clip-rule="evenodd" d="M43.6713 48.9249H38.818V70.4194C38.818 71.1058 39.0311 71.6967 39.4738 72.1628L39.4802 72.1691C39.9452 72.6341 40.5382 72.8608 41.2299 72.8608C41.5536 72.8608 41.8726 72.7917 42.1847 72.6591C42.6599 72.4807 43.0391 72.202 43.2966 71.8128C43.5543 71.4233 43.6713 70.9515 43.6713 70.4194V48.9249ZM51.5223 48.9249H46.6689V70.4194C46.6689 71.1058 46.882 71.6967 47.3248 72.1628L47.3311 72.1691C47.7962 72.6341 48.3891 72.8608 49.0809 72.8608C49.4045 72.8608 49.7236 72.7917 50.0357 72.6591C50.5109 72.4807 50.8901 72.202 51.1475 71.8128C51.4052 71.4233 51.5223 70.9515 51.5223 70.4194V48.9249ZM61.3633 48.9544C60.6517 48.9544 60.0279 49.1905 59.5104 49.6616C58.9776 50.1265 58.7158 50.7457 58.7158 51.4841C58.7158 52.2027 58.9673 52.8103 59.4783 53.2749L59.4842 53.28C60.005 53.7329 60.6385 53.955 61.3633 53.955C62.0882 53.955 62.7216 53.7329 63.2425 53.28C63.7748 52.8171 64.0403 52.2081 64.0403 51.4841C64.0403 50.7457 63.7785 50.1265 63.2456 49.6616C62.726 49.1885 62.0915 48.9544 61.3633 48.9544ZM132.608 55.2858C130.252 55.2858 128.269 56.02 126.685 57.5005L126.682 57.5041C124.989 59.1348 124.16 61.3641 124.16 64.1469C124.16 66.8588 124.874 69.0256 126.345 70.6001C127.882 72.2406 130.077 73.0375 132.873 73.0375C133.321 73.0375 133.796 73.007 134.298 72.9468C136.085 72.7459 137.543 72.2506 138.647 71.4379L138.649 71.436C139.267 70.9729 139.614 70.3862 139.614 69.6832C139.614 69.1794 139.476 68.7393 139.14 68.4311C138.81 68.128 138.349 68.0074 137.821 68.0074C137.485 68.0074 137.047 68.1121 136.528 68.2917L136.522 68.2939C135.379 68.713 134.261 68.9203 133.168 68.9203C131.909 68.9203 130.934 68.5435 130.206 67.8156L130.203 67.813C129.35 66.9776 128.895 65.7178 128.895 63.9702C128.895 62.607 129.188 61.4881 129.754 60.5944L129.757 60.5896C130.4 59.5354 131.317 59.0201 132.549 59.0201C133.409 59.0201 134.079 59.2939 134.594 59.8262C135.045 60.2921 135.32 61.009 135.371 62.0294H131.607C131.387 62.0294 131.16 62.0514 130.926 62.094L130.918 62.0953L130.911 62.097C130.427 62.207 130.026 62.4168 129.747 62.7524C129.467 63.0898 129.342 63.5167 129.342 63.9996C129.342 64.6103 129.526 65.1271 129.945 65.482C130.353 65.8274 130.928 65.9699 131.607 65.9699H140.292V64.4708C140.292 61.4843 139.656 59.1791 138.323 57.6174C136.985 56.0494 135.061 55.2858 132.608 55.2858ZM134.298 72.9468L134.299 72.9466L134.257 72.5985L134.297 72.9469L134.298 72.9468ZM27.7714 55.3447C25.4294 55.3447 23.4986 56.1121 22.0116 57.6611L22.0104 57.6624C20.4419 59.3134 19.6759 61.5481 19.6759 64.3236C19.6759 67.0883 20.3675 69.2584 21.8034 70.7777C23.1415 72.1993 25.0103 72.8902 27.3591 72.8902C28.2981 72.8902 29.1099 72.7374 29.7793 72.4135L29.7834 72.4115C30.4268 72.0898 30.8656 71.6463 31.0272 71.077C31.1235 71.4883 31.3163 71.853 31.6105 72.1627L31.6167 72.1692L31.6232 72.1754C32.0893 72.6181 32.6801 72.8313 33.3665 72.8313C33.5035 72.8313 33.6479 72.82 33.799 72.7984L33.8031 72.7977C34.4304 72.7004 34.9447 72.4575 35.2987 72.0364C35.6519 71.6163 35.808 71.0633 35.808 70.4194V55.7569H32.0903L31.8156 56.5125C30.6946 55.7292 29.3405 55.3447 27.7714 55.3447ZM30.9546 62.0855V69.7385C30.8785 69.5478 30.7697 69.3778 30.6229 69.234C30.2884 68.9061 29.8163 68.7731 29.2732 68.7731C29.0935 68.7731 28.8402 68.795 28.523 68.8347C28.2139 68.8733 27.9853 68.8909 27.8303 68.8909C26.8769 68.8909 26.1491 68.5278 25.6092 67.7964L25.6069 67.7933C25.0025 66.9934 24.6765 65.8229 24.6765 64.2352C24.6765 63.2966 24.7724 62.5184 24.9558 61.8933C25.235 61.0108 25.6478 60.3805 26.1757 59.9694C26.7018 59.5598 27.3727 59.344 28.2131 59.344C28.655 59.344 29.0403 59.3992 29.3727 59.5041C29.9119 59.6782 30.2964 59.972 30.5516 60.3795C30.8107 60.7932 30.9546 61.3534 30.9546 62.0855ZM75.7224 55.3447C73.9139 55.3447 72.3753 55.896 71.1256 57.0004V55.7569H66.8023V70.4194C66.8023 71.1058 67.0155 71.6966 67.4583 72.1627C67.9082 72.6363 68.5067 72.8608 69.2143 72.8608C69.906 72.8608 70.499 72.6341 70.964 72.1691C71.4291 71.7041 71.6557 71.1111 71.6557 70.4194V61.3264C71.7217 61.1665 71.8317 60.9806 71.9953 60.7679L71.9972 60.7654C72.6591 59.8888 73.5089 59.4618 74.5739 59.4618C74.8909 59.4618 75.1862 59.5053 75.4614 59.5903C75.8774 59.7473 76.1833 60.0169 76.3919 60.4095C76.6064 60.8133 76.7264 61.3646 76.7264 62.0855V70.4194C76.7264 71.1058 76.9396 71.6967 77.3823 72.1627C77.8322 72.6363 78.4308 72.8608 79.1383 72.8608C79.8301 72.8608 80.4231 72.6341 80.8881 72.1691C81.3531 71.7041 81.5798 71.1111 81.5798 70.4194V61.791C81.5798 59.6965 81.0661 58.0536 79.9802 56.9249C78.955 55.8569 77.5182 55.3447 75.7224 55.3447ZM96.6012 55.3447C94.226 55.3447 92.2504 56.0784 90.7043 57.5626L90.7024 57.5645C89.0493 59.1762 88.2407 61.3856 88.2407 64.1469C88.2407 66.6886 88.9485 68.7804 90.3917 70.3885L90.3925 70.3894C91.9407 72.1027 94.0236 72.9491 96.6012 72.9491C98.9773 72.9491 100.945 72.2048 102.471 70.699C104.123 69.0879 104.932 66.8889 104.932 64.1469C104.932 61.6052 104.224 59.5134 102.781 57.9053C101.252 56.1908 99.1782 55.3447 96.6012 55.3447ZM63.8047 55.7569H58.9514V70.4194C58.9514 71.1058 59.1645 71.6967 59.6072 72.1628L59.6136 72.1691C60.0786 72.6341 60.6716 72.8608 61.3633 72.8608C61.687 72.8608 62.006 72.7917 62.3181 72.6591C62.7933 72.4807 63.1725 72.202 63.43 71.8128C63.6877 71.4233 63.8047 70.9515 63.8047 70.4194V55.7569ZM93.2118 64.1174C93.2118 63.2386 93.2976 62.4868 93.4636 61.8571C93.7344 60.9638 94.1343 60.3273 94.6432 59.9132C95.1496 59.5013 95.7938 59.2851 96.6012 59.2851C97.6454 59.2851 98.433 59.6482 99.0068 60.3605C99.6655 61.1982 100.02 62.4339 100.02 64.1174C100.02 64.9968 99.9242 65.7362 99.7405 66.3422L99.7402 66.3434C99.4691 67.2502 99.068 67.8959 98.5577 68.3154C98.0514 68.7316 97.4077 68.9498 96.6012 68.9498C95.5822 68.9498 94.7922 68.5809 94.1956 67.8451C93.5573 67.028 93.2118 65.803 93.2118 64.1174ZM111.125 56.1075V57.8449C112.401 56.4118 114.05 55.6952 116.073 55.6952C117.8 55.6952 119.135 56.186 120.078 57.1676C121.079 58.2081 121.579 59.7493 121.579 61.791V70.4193C121.579 71.0279 121.383 71.5286 120.99 71.9212C120.598 72.3139 120.097 72.5102 119.489 72.5102C118.86 72.5102 118.36 72.3139 117.987 71.9212C117.614 71.5286 117.427 71.0279 117.427 70.4193V62.0855C117.427 60.5738 116.927 59.6315 115.925 59.2585C115.611 59.1603 115.277 59.1112 114.924 59.1112C113.746 59.1112 112.794 59.5922 112.068 60.5542C111.871 60.8094 111.734 61.045 111.655 61.2609V70.4193C111.655 71.0279 111.459 71.5286 111.066 71.9212C110.674 72.3139 110.173 72.5102 109.565 72.5102C108.936 72.5102 108.436 72.3139 108.063 71.9212C107.69 71.5286 107.503 71.0279 107.503 70.4193V56.1075H111.125Z" fill="black"/>
</g>
<path d="M60.9982 55.3334C60.6491 55.3321 60.3032 55.3998 59.9803 55.5326C59.6575 55.6654 59.364 55.8606 59.1167 56.107C58.8694 56.3535 58.6732 56.6464 58.5393 56.9689C58.4055 57.2914 58.3365 57.6371 58.3365 57.9863C58.3185 58.3581 58.3775 58.7297 58.5099 59.0776C58.6423 59.4256 58.8452 59.7423 59.1058 60.0081C59.3665 60.2739 59.6792 60.4828 60.0245 60.6219C60.3697 60.761 60.7399 60.8271 61.112 60.8162C62.095 60.8162 62.525 60.2819 63.3658 60.5159C64.5449 57.0314 62.7146 55.3334 60.9982 55.3334Z" fill="#8952AF"/>
</svg>
